<svg xmlns="http://www.w3.org/2000/svg" xmlns:xlink="http://www.w3.org/1999/xlink" width="1080" zoomAndPan="magnify" viewBox="0 0 810 809.999993" height="1080" preserveAspectRatio="xMidYMid meet" version="1.0"><defs><g/><clipPath id="330fccffa2"><path d="M 243 238.757812 L 567 238.757812 L 567 466.757812 L 243 466.757812 Z M 243 238.757812 " clip-rule="nonzero"/></clipPath></defs><rect x="-81" width="972" fill="#ffffff" y="-80.999999" height="971.999992" fill-opacity="1"/><rect x="-81" width="972" fill="#586f6b" y="-80.999999" height="971.999992" fill-opacity="1"/><g fill="#011627" fill-opacity="1"><g transform="translate(47.091798, 555.071368)"><g><path d="M 42.976562 -64.351562 L 29.40625 -64.351562 L 3.511719 0 L 19.265625 0 L 23.945312 -12.871094 L 48.4375 -12.871094 L 53.273438 0 L 69.03125 0 Z M 43.445312 -25.738281 L 28.9375 -25.738281 L 36.113281 -44.460938 Z M 43.445312 -25.738281 "/></g></g></g><g fill="#011627" fill-opacity="1"><g transform="translate(119.709855, 555.071368)"><g><path d="M 19.890625 0 L 19.890625 -19.03125 C 19.890625 -26.910156 22.074219 -29.953125 27.847656 -29.953125 C 33.617188 -29.953125 35.644531 -26.910156 35.644531 -19.03125 L 35.644531 0 L 49.453125 0 L 49.453125 -22.386719 C 49.453125 -35.800781 42.820312 -41.183594 27.847656 -41.183594 C 22.777344 -41.183594 19.109375 -40.09375 16.457031 -38.296875 L 16.457031 -40.558594 L 5.539062 -40.558594 L 5.539062 0 Z M 19.890625 0 "/></g></g></g><g fill="#011627" fill-opacity="1"><g transform="translate(174.777906, 555.071368)"><g><path d="M 20.046875 -19.96875 C 20.046875 -25.507812 24.179688 -29.40625 29.40625 -29.40625 C 33.851562 -29.40625 37.597656 -26.363281 38.453125 -21.917969 L 38.453125 -17.941406 C 37.675781 -13.570312 34.085938 -10.609375 29.40625 -10.609375 C 23.789062 -10.609375 20.046875 -14.507812 20.046875 -19.96875 Z M 52.183594 0 L 52.183594 -67.078125 L 38.375 -67.078125 L 38.375 -40.949219 C 32.992188 -41.339844 27.613281 -41.183594 25.273438 -41.183594 C 13.570312 -41.183594 5.382812 -31.667969 5.382812 -19.96875 C 5.382812 -8.269531 13.570312 1.171875 25.273438 1.171875 C 30.730469 1.171875 35.566406 -1.246094 38.53125 -4.523438 L 38.53125 0 Z M 52.183594 0 "/></g></g></g><g fill="#011627" fill-opacity="1"><g transform="translate(232.65396, 555.071368)"><g><path d="M 18.640625 -40.015625 L 4.835938 -40.015625 L 4.835938 0 L 18.640625 0 L 18.640625 -21.058594 C 18.640625 -22.074219 19.65625 -29.171875 26.832031 -29.171875 C 31.433594 -29.171875 34.007812 -26.988281 34.007812 -26.988281 L 39.78125 -38.6875 C 39.78125 -38.6875 36.191406 -41.183594 31.042969 -41.183594 C 23.164062 -41.183594 18.640625 -34.242188 18.640625 -34.242188 Z M 18.640625 -40.015625 "/></g></g></g><g fill="#011627" fill-opacity="1"><g transform="translate(277.348012, 555.071368)"><g><path d="M 19.34375 -24.726562 C 19.578125 -28.390625 22.230469 -32.214844 26.988281 -32.214844 C 31.042969 -32.214844 33.929688 -28.9375 34.554688 -24.726562 Z M 37.363281 -13.492188 C 28.546875 -4.679688 18.953125 -10.996094 18.953125 -17.707031 L 48.046875 -17.707031 C 48.046875 -32.605469 38.765625 -41.183594 26.597656 -41.183594 C 14.507812 -41.183594 4.601562 -31.667969 4.601562 -19.96875 C 4.601562 -8.347656 14.507812 1.171875 26.597656 1.171875 C 35.488281 1.171875 42.820312 -1.714844 47.347656 -9.28125 Z M 21.761719 -51.792969 L 26.128906 -45.785156 L 44.695312 -56.550781 L 37.597656 -65.519531 Z M 21.761719 -51.792969 "/></g></g></g><g fill="#011627" fill-opacity="1"><g transform="translate(342.946092, 555.071368)"><g><path d="M 57.796875 -1.949219 L 54.679688 -16.378906 C 54.679688 -16.378906 48.984375 -13.261719 41.496094 -13.261719 C 26.753906 -13.261719 20.28125 -23.554688 20.28125 -32.214844 C 20.28125 -40.792969 26.753906 -51.089844 41.496094 -51.089844 C 48.984375 -51.089844 54.679688 -47.96875 54.679688 -47.96875 L 57.796875 -62.398438 C 57.796875 -62.398438 53.195312 -65.519531 39.234375 -65.519531 C 20.980469 -65.519531 4.367188 -50.542969 4.367188 -32.058594 C 4.367188 -13.648438 21.058594 1.171875 39.234375 1.171875 C 53.195312 1.171875 57.796875 -1.949219 57.796875 -1.949219 Z M 57.796875 -1.949219 "/></g></g></g><g fill="#011627" fill-opacity="1"><g transform="translate(405.190138, 555.071368)"><g><path d="M 19.890625 -19.96875 C 19.890625 -25.507812 24.023438 -29.40625 29.25 -29.40625 C 34.398438 -29.40625 38.53125 -25.507812 38.53125 -19.96875 C 38.53125 -14.507812 34.632812 -10.609375 29.25 -10.609375 C 23.632812 -10.609375 19.890625 -14.507812 19.890625 -19.96875 Z M 52.027344 -35.410156 C 52.027344 -42.199219 30.496094 -41.183594 25.117188 -41.183594 C 13.414062 -41.183594 5.226562 -31.667969 5.226562 -19.96875 C 5.226562 -8.269531 13.414062 1.171875 25.117188 1.171875 C 30.574219 1.171875 35.410156 -1.246094 38.375 -4.523438 L 38.375 0 L 52.027344 0 Z M 52.027344 -35.410156 "/></g></g></g><g fill="#011627" fill-opacity="1"><g transform="translate(462.520182, 555.071368)"><g><path d="M 18.640625 -40.015625 L 4.835938 -40.015625 L 4.835938 0 L 18.640625 0 L 18.640625 -21.058594 C 18.640625 -22.074219 19.65625 -29.171875 26.832031 -29.171875 C 31.433594 -29.171875 34.007812 -26.988281 34.007812 -26.988281 L 39.78125 -38.6875 C 39.78125 -38.6875 36.191406 -41.183594 31.042969 -41.183594 C 23.164062 -41.183594 18.640625 -34.242188 18.640625 -34.242188 Z M 18.640625 -40.015625 "/></g></g></g><g fill="#011627" fill-opacity="1"><g transform="translate(507.214211, 555.071368)"><g><path d="M 20.125 -40.015625 L 3.742188 -40.015625 L 25.195312 0 L 34.554688 0 L 56.003906 -40.015625 L 39.625 -40.015625 L 29.875 -18.253906 Z M 20.125 -40.015625 "/></g></g></g><g fill="#011627" fill-opacity="1"><g transform="translate(567.040257, 555.071368)"><g><path d="M 19.890625 -19.96875 C 19.890625 -25.507812 24.023438 -29.40625 29.25 -29.40625 C 34.398438 -29.40625 38.53125 -25.507812 38.53125 -19.96875 C 38.53125 -14.507812 34.632812 -10.609375 29.25 -10.609375 C 23.632812 -10.609375 19.890625 -14.507812 19.890625 -19.96875 Z M 52.027344 -35.410156 C 52.027344 -42.199219 30.496094 -41.183594 25.117188 -41.183594 C 13.414062 -41.183594 5.226562 -31.667969 5.226562 -19.96875 C 5.226562 -8.269531 13.414062 1.171875 25.117188 1.171875 C 30.574219 1.171875 35.410156 -1.246094 38.375 -4.523438 L 38.375 0 L 52.027344 0 Z M 52.027344 -35.410156 "/></g></g></g><g fill="#011627" fill-opacity="1"><g transform="translate(624.370301, 555.071368)"><g><path d="M 24.257812 0 C 26.597656 0 31.121094 -12.480469 28.703125 -12.714844 C 27.847656 -12.714844 22.230469 -13.183594 22.230469 -18.253906 L 21.917969 -64.351562 L 8.191406 -64.351562 L 8.347656 -17.550781 C 8.347656 -6.707031 14.117188 0 24.257812 0 Z M 24.257812 0 "/></g></g></g><g fill="#011627" fill-opacity="1"><g transform="translate(656.038345, 555.071368)"><g><path d="M 19.421875 -67.078125 L 5.617188 -67.078125 L 5.617188 0 L 19.421875 0 L 19.421875 -22.621094 C 19.421875 -26.597656 23.476562 -30.421875 27.613281 -30.421875 C 32.058594 -30.421875 34.789062 -26.597656 34.789062 -22.621094 L 34.789062 0 L 48.59375 0 L 48.59375 -26.363281 C 48.59375 -37.519531 38.375 -41.183594 31.042969 -41.183594 C 26.675781 -41.183594 22.542969 -38.921875 19.421875 -35.800781 Z M 19.421875 -67.078125 "/></g></g></g><g fill="#011627" fill-opacity="1"><g transform="translate(710.24841, 555.071368)"><g><path d="M 17.082031 -19.96875 C 17.082031 -24.726562 21.292969 -29.015625 26.285156 -29.015625 C 31.355469 -29.015625 35.488281 -24.726562 35.488281 -19.96875 C 35.488281 -15.132812 31.355469 -10.921875 26.285156 -10.921875 C 21.292969 -10.921875 17.082031 -15.132812 17.082031 -19.96875 Z M 4.757812 -19.96875 C 4.757812 -8.65625 14.585938 1.171875 26.441406 1.171875 C 38.296875 1.171875 47.890625 -8.65625 47.890625 -19.96875 C 47.890625 -31.277344 38.296875 -41.183594 26.441406 -41.183594 C 14.585938 -41.183594 4.757812 -31.277344 4.757812 -19.96875 Z M 4.757812 -19.96875 "/></g></g></g><g fill="#011627" fill-opacity="1"><g transform="translate(257.642568, 623.871325)"><g><path d="M 10.5 0 L 3.953125 0 L 3.953125 -31.40625 L 21.953125 -31.40625 L 21.953125 -25.953125 L 10.5 -25.953125 L 10.5 -17.859375 L 21.15625 -17.859375 L 21.15625 -12.421875 L 10.5 -12.421875 Z M 10.5 0 "/></g></g></g><g fill="#011627" fill-opacity="1"><g transform="translate(281.786716, 623.871325)"><g><path d="M 20.453125 0 L 19.578125 -3.078125 L 19.234375 -3.078125 C 18.523438 -1.953125 17.523438 -1.082031 16.234375 -0.46875 C 14.953125 0.132812 13.488281 0.4375 11.84375 0.4375 C 9.019531 0.4375 6.890625 -0.316406 5.453125 -1.828125 C 4.023438 -3.347656 3.3125 -5.523438 3.3125 -8.359375 L 3.3125 -24.015625 L 9.859375 -24.015625 L 9.859375 -9.984375 C 9.859375 -8.253906 10.164062 -6.957031 10.78125 -6.09375 C 11.394531 -5.226562 12.378906 -4.796875 13.734375 -4.796875 C 15.566406 -4.796875 16.890625 -5.40625 17.703125 -6.625 C 18.515625 -7.851562 18.921875 -9.882812 18.921875 -12.71875 L 18.921875 -24.015625 L 25.484375 -24.015625 L 25.484375 0 Z M 20.453125 0 "/></g></g></g><g fill="#011627" fill-opacity="1"><g transform="translate(310.69955, 623.871325)"><g><path d="M 9.984375 0 L 3.4375 0 L 3.4375 -33.4375 L 9.984375 -33.4375 Z M 9.984375 0 "/></g></g></g><g fill="#011627" fill-opacity="1"><g transform="translate(324.124899, 623.871325)"><g><path d="M 9.984375 0 L 3.4375 0 L 3.4375 -33.4375 L 9.984375 -33.4375 Z M 9.984375 0 "/></g></g></g><g fill="#011627" fill-opacity="1"><g transform="translate(337.550249, 623.871325)"><g><path d="M 22.5 -8.71875 C 22.5 -5.882812 21.476562 -3.648438 19.4375 -2.015625 C 17.394531 -0.378906 14.554688 0.4375 10.921875 0.4375 C 7.566406 0.4375 4.597656 -0.195312 2.015625 -1.46875 L 2.015625 -7.65625 C 4.140625 -6.707031 5.9375 -6.039062 7.40625 -5.65625 C 8.875 -5.269531 10.21875 -5.078125 11.4375 -5.078125 C 12.894531 -5.078125 14.015625 -5.351562 14.796875 -5.90625 C 15.578125 -6.46875 15.96875 -7.300781 15.96875 -8.40625 C 15.96875 -9.019531 15.796875 -9.566406 15.453125 -10.046875 C 15.109375 -10.523438 14.601562 -10.984375 13.9375 -11.421875 C 13.269531 -11.867188 11.910156 -12.582031 9.859375 -13.5625 C 7.941406 -14.457031 6.503906 -15.320312 5.546875 -16.15625 C 4.585938 -16.988281 3.820312 -17.957031 3.25 -19.0625 C 2.675781 -20.164062 2.390625 -21.453125 2.390625 -22.921875 C 2.390625 -25.703125 3.328125 -27.882812 5.203125 -29.46875 C 7.085938 -31.0625 9.691406 -31.859375 13.015625 -31.859375 C 14.648438 -31.859375 16.207031 -31.664062 17.6875 -31.28125 C 19.175781 -30.894531 20.726562 -30.351562 22.34375 -29.65625 L 20.203125 -24.46875 C 18.523438 -25.15625 17.132812 -25.632812 16.03125 -25.90625 C 14.9375 -26.175781 13.863281 -26.3125 12.8125 -26.3125 C 11.550781 -26.3125 10.582031 -26.019531 9.90625 -25.4375 C 9.226562 -24.851562 8.890625 -24.085938 8.890625 -23.140625 C 8.890625 -22.554688 9.023438 -22.046875 9.296875 -21.609375 C 9.578125 -21.171875 10.015625 -20.742188 10.609375 -20.328125 C 11.203125 -19.921875 12.609375 -19.191406 14.828125 -18.140625 C 17.765625 -16.734375 19.773438 -15.320312 20.859375 -13.90625 C 21.953125 -12.5 22.5 -10.769531 22.5 -8.71875 Z M 22.5 -8.71875 "/></g></g></g><g fill="#011627" fill-opacity="1"><g transform="translate(361.78032, 623.871325)"><g><path d="M 13.5625 -4.796875 C 14.707031 -4.796875 16.082031 -5.046875 17.6875 -5.546875 L 17.6875 -0.671875 C 16.050781 0.0664062 14.046875 0.4375 11.671875 0.4375 C 9.046875 0.4375 7.132812 -0.222656 5.9375 -1.546875 C 4.738281 -2.878906 4.140625 -4.867188 4.140625 -7.515625 L 4.140625 -19.09375 L 1.015625 -19.09375 L 1.015625 -21.875 L 4.625 -24.0625 L 6.515625 -29.140625 L 10.703125 -29.140625 L 10.703125 -24.015625 L 17.421875 -24.015625 L 17.421875 -19.09375 L 10.703125 -19.09375 L 10.703125 -7.515625 C 10.703125 -6.585938 10.960938 -5.898438 11.484375 -5.453125 C 12.003906 -5.015625 12.695312 -4.796875 13.5625 -4.796875 Z M 13.5625 -4.796875 "/></g></g></g><g fill="#011627" fill-opacity="1"><g transform="translate(380.876537, 623.871325)"><g><path d="M 18.6875 0 L 17.421875 -3.265625 L 17.25 -3.265625 C 16.144531 -1.878906 15.007812 -0.914062 13.84375 -0.375 C 12.675781 0.164062 11.15625 0.4375 9.28125 0.4375 C 6.976562 0.4375 5.160156 -0.222656 3.828125 -1.546875 C 2.503906 -2.867188 1.84375 -4.742188 1.84375 -7.171875 C 1.84375 -9.722656 2.734375 -11.601562 4.515625 -12.8125 C 6.304688 -14.019531 9 -14.691406 12.59375 -14.828125 L 16.765625 -14.953125 L 16.765625 -16 C 16.765625 -18.4375 15.515625 -19.65625 13.015625 -19.65625 C 11.097656 -19.65625 8.84375 -19.078125 6.25 -17.921875 L 4.078125 -22.34375 C 6.847656 -23.789062 9.914062 -24.515625 13.28125 -24.515625 C 16.5 -24.515625 18.96875 -23.8125 20.6875 -22.40625 C 22.40625 -21 23.265625 -18.863281 23.265625 -16 L 23.265625 0 Z M 16.765625 -11.125 L 14.21875 -11.046875 C 12.3125 -10.984375 10.894531 -10.632812 9.96875 -10 C 9.039062 -9.375 8.578125 -8.421875 8.578125 -7.140625 C 8.578125 -5.285156 9.632812 -4.359375 11.75 -4.359375 C 13.269531 -4.359375 14.484375 -4.796875 15.390625 -5.671875 C 16.304688 -6.546875 16.765625 -7.707031 16.765625 -9.15625 Z M 16.765625 -11.125 "/></g></g></g><g fill="#011627" fill-opacity="1"><g transform="translate(407.447988, 623.871325)"><g><path d="M 13.1875 0.4375 C 5.71875 0.4375 1.984375 -3.664062 1.984375 -11.875 C 1.984375 -15.957031 3 -19.078125 5.03125 -21.234375 C 7.0625 -23.390625 9.972656 -24.46875 13.765625 -24.46875 C 16.546875 -24.46875 19.039062 -23.925781 21.25 -22.84375 L 19.3125 -17.765625 C 18.28125 -18.179688 17.320312 -18.519531 16.4375 -18.78125 C 15.550781 -19.050781 14.660156 -19.1875 13.765625 -19.1875 C 10.359375 -19.1875 8.65625 -16.765625 8.65625 -11.921875 C 8.65625 -7.222656 10.359375 -4.875 13.765625 -4.875 C 15.023438 -4.875 16.191406 -5.039062 17.265625 -5.375 C 18.347656 -5.71875 19.425781 -6.25 20.5 -6.96875 L 20.5 -1.359375 C 19.4375 -0.679688 18.363281 -0.210938 17.28125 0.046875 C 16.195312 0.304688 14.832031 0.4375 13.1875 0.4375 Z M 13.1875 0.4375 "/></g></g></g><g fill="#011627" fill-opacity="1"><g transform="translate(430.067018, 623.871325)"><g><path d="M 9.734375 -13.0625 L 12.59375 -16.71875 L 19.3125 -24.015625 L 26.703125 -24.015625 L 17.171875 -13.59375 L 27.28125 0 L 19.71875 0 L 12.8125 -9.734375 L 9.984375 -7.484375 L 9.984375 0 L 3.4375 0 L 3.4375 -33.4375 L 9.984375 -33.4375 L 9.984375 -18.515625 L 9.640625 -13.0625 Z M 9.734375 -13.0625 "/></g></g></g><g fill="#011627" fill-opacity="1"><g transform="translate(457.347317, 623.871325)"><g/></g></g><g fill="#011627" fill-opacity="1"><g transform="translate(468.774974, 623.871325)"><g><path d="M 30.015625 -16 C 30.015625 -10.832031 28.539062 -6.875 25.59375 -4.125 C 22.65625 -1.375 18.40625 0 12.84375 0 L 3.953125 0 L 3.953125 -31.40625 L 13.8125 -31.40625 C 18.9375 -31.40625 22.914062 -30.050781 25.75 -27.34375 C 28.59375 -24.644531 30.015625 -20.863281 30.015625 -16 Z M 23.09375 -15.828125 C 23.09375 -22.578125 20.113281 -25.953125 14.15625 -25.953125 L 10.609375 -25.953125 L 10.609375 -5.5 L 13.46875 -5.5 C 19.882812 -5.5 23.09375 -8.941406 23.09375 -15.828125 Z M 23.09375 -15.828125 "/></g></g></g><g fill="#011627" fill-opacity="1"><g transform="translate(501.339502, 623.871325)"><g><path d="M 13.390625 -19.8125 C 11.992188 -19.8125 10.898438 -19.367188 10.109375 -18.484375 C 9.328125 -17.609375 8.878906 -16.359375 8.765625 -14.734375 L 17.96875 -14.734375 C 17.9375 -16.359375 17.507812 -17.609375 16.6875 -18.484375 C 15.875 -19.367188 14.773438 -19.8125 13.390625 -19.8125 Z M 14.3125 0.4375 C 10.445312 0.4375 7.425781 -0.628906 5.25 -2.765625 C 3.070312 -4.898438 1.984375 -7.925781 1.984375 -11.84375 C 1.984375 -15.863281 2.988281 -18.972656 5 -21.171875 C 7.007812 -23.367188 9.789062 -24.46875 13.34375 -24.46875 C 16.738281 -24.46875 19.378906 -23.5 21.265625 -21.5625 C 23.160156 -19.632812 24.109375 -16.96875 24.109375 -13.5625 L 24.109375 -10.375 L 8.609375 -10.375 C 8.679688 -8.507812 9.234375 -7.054688 10.265625 -6.015625 C 11.296875 -4.972656 12.742188 -4.453125 14.609375 -4.453125 C 16.054688 -4.453125 17.421875 -4.597656 18.703125 -4.890625 C 19.992188 -5.191406 21.34375 -5.675781 22.75 -6.34375 L 22.75 -1.265625 C 21.601562 -0.691406 20.378906 -0.265625 19.078125 0.015625 C 17.773438 0.296875 16.1875 0.4375 14.3125 0.4375 Z M 14.3125 0.4375 "/></g></g></g><g fill="#011627" fill-opacity="1"><g transform="translate(527.330979, 623.871325)"><g><path d="M 9.15625 0 L 0 -24.015625 L 6.859375 -24.015625 L 11.5 -10.328125 C 12.007812 -8.597656 12.332031 -6.960938 12.46875 -5.421875 L 12.59375 -5.421875 C 12.664062 -6.796875 12.988281 -8.429688 13.5625 -10.328125 L 18.171875 -24.015625 L 25.03125 -24.015625 L 15.875 0 Z M 9.15625 0 "/></g></g></g><g clip-path="url(#330fccffa2)"><path fill="#011627" d="M 290.128906 261.222656 L 519.863281 261.222656 L 519.863281 406.4375 L 290.128906 406.4375 Z M 282.558594 414.003906 L 527.429688 414.003906 L 527.429688 253.65625 L 282.558594 253.65625 Z M 555.175781 459.074219 C 552.023438 459.105469 462.28125 459.125 383.707031 459.125 C 306.125 459.125 257.941406 459.105469 254.820312 459.078125 C 253.03125 459.058594 251.996094 455.832031 251.394531 454.578125 L 557.625 454.578125 C 556.839844 455.921875 555.949219 459.066406 555.175781 459.074219 Z M 272.195312 428.914062 L 537.792969 428.914062 L 554.550781 447.011719 L 255.441406 447.011719 Z M 274.328125 250.894531 C 274.328125 248.410156 276.359375 246.390625 278.855469 246.390625 L 531.148438 246.390625 C 533.636719 246.390625 535.664062 248.410156 535.664062 250.894531 L 535.664062 421.269531 L 274.328125 421.269531 Z M 565.804688 448.03125 L 543.230469 423.648438 L 543.230469 250.894531 C 543.230469 244.238281 537.8125 238.820312 531.152344 238.820312 L 278.855469 238.820312 C 272.183594 238.820312 266.761719 244.238281 266.761719 250.894531 L 266.761719 423.648438 L 244.007812 448.226562 C 243.371094 448.914062 243 449.867188 243 450.804688 C 243.007812 455.5 245.476562 466.550781 254.746094 466.640625 C 257.890625 466.671875 306.101562 466.691406 383.707031 466.691406 C 462.300781 466.691406 552.074219 466.671875 555.242188 466.640625 C 563.074219 466.570312 566.207031 454.261719 566.800781 452.011719 C 566.929688 451.628906 567.003906 451.222656 567.003906 450.796875 C 567.003906 449.707031 566.542969 448.722656 565.804688 448.03125 " fill-opacity="1" fill-rule="nonzero"/></g></svg>