<svg xmlns="http://www.w3.org/2000/svg" xmlns:xlink="http://www.w3.org/1999/xlink" width="1080" zoomAndPan="magnify" viewBox="0 0 810 809.999993" height="1080" preserveAspectRatio="xMidYMid meet" version="1.0"><defs><g/><clipPath id="d86b0e2dea"><path d="M 81 177 L 729 177 L 729 632.984375 L 81 632.984375 Z M 81 177 " clip-rule="nonzero"/></clipPath></defs><g clip-path="url(#d86b0e2dea)"><path fill="#ffb41f" d="M 175.257812 221.921875 L 634.726562 221.921875 L 634.726562 512.367188 L 175.257812 512.367188 Z M 160.121094 527.5 L 649.855469 527.5 L 649.855469 206.789062 L 160.121094 206.789062 Z M 705.347656 617.644531 C 699.050781 617.703125 519.5625 617.746094 362.417969 617.746094 C 207.253906 617.746094 110.882812 617.703125 104.640625 617.648438 C 101.0625 617.613281 98.992188 611.15625 97.789062 608.652344 L 710.25 608.652344 C 708.679688 611.34375 706.898438 617.628906 705.347656 617.644531 Z M 139.394531 557.320312 L 670.585938 557.320312 L 704.097656 593.519531 L 105.882812 593.519531 Z M 143.652344 201.265625 C 143.652344 196.292969 147.714844 192.253906 152.707031 192.253906 L 657.296875 192.253906 C 662.277344 192.253906 666.324219 196.292969 666.324219 201.265625 L 666.324219 542.03125 L 143.652344 542.03125 Z M 726.605469 595.558594 L 681.460938 546.789062 L 681.460938 201.265625 C 681.460938 187.949219 670.621094 177.117188 657.300781 177.117188 L 152.707031 177.117188 C 139.371094 177.117188 128.519531 187.949219 128.519531 201.265625 L 128.519531 546.789062 L 83.011719 595.945312 C 81.742188 597.320312 81 599.234375 81 601.101562 C 81.019531 610.492188 85.953125 632.59375 104.488281 632.777344 C 110.78125 632.839844 207.207031 632.875 362.417969 632.875 C 519.597656 632.875 699.144531 632.835938 705.488281 632.78125 C 721.152344 632.632812 727.410156 608.019531 728.601562 603.519531 C 728.863281 602.753906 729.007812 601.9375 729.007812 601.085938 C 729.007812 598.90625 728.082031 596.9375 726.605469 595.558594 " fill-opacity="1" fill-rule="nonzero"/></g><g fill="#ffb41f" fill-opacity="1"><g transform="translate(356.666001, 434.438993)"><g><path d="M 30.148438 -40.742188 L 50.359375 -91.753906 L 70.40625 -40.742188 Z M 98.925781 0 L 50.359375 -118.484375 L 1.628906 0 L 14.015625 0 L 25.914062 -30.148438 L 74.640625 -30.148438 L 86.539062 0 Z M 98.925781 0 "/></g></g></g><g fill="#ffb41f" fill-opacity="1"><g transform="translate(286.508895, 485.438991)"><g><path d="M 215.25 -64.050781 L 191.539062 -64.050781 C 184.148438 -50.503906 173.988281 -39.417969 161.054688 -31.410156 C 148.121094 -23.09375 133.648438 -19.09375 118.25 -19.09375 C 95.152344 -19.09375 75.445312 -27.40625 59.125 -44.652344 C 43.113281 -60.972656 35.414062 -80.988281 35.414062 -104.390625 C 35.414062 -127.796875 43.113281 -147.8125 59.125 -164.441406 C 66.515625 -172.140625 75.445312 -178.296875 85.609375 -182.917969 C 95.460938 -187.535156 105.316406 -190 115.171875 -190 C 124.714844 -190 133.03125 -188.769531 140.421875 -186.613281 C 162.902344 -179.839844 179.839844 -166.289062 191.230469 -145.65625 L 214.945312 -145.65625 C 206.9375 -165.363281 194.3125 -181.378906 176.757812 -193.695312 C 158.898438 -206.011719 139.496094 -212.171875 118.25 -212.171875 C 88.996094 -212.171875 64.359375 -201.394531 44.035156 -180.144531 C 34.488281 -170.292969 27.097656 -158.589844 21.863281 -145.65625 C 16.320312 -132.722656 13.855469 -118.867188 13.855469 -104.390625 C 13.855469 -74.828125 23.710938 -49.886719 44.035156 -28.945312 C 64.359375 -7.390625 88.996094 3.078125 118.25 3.078125 C 139.496094 3.078125 158.898438 -3.078125 177.066406 -15.398438 C 194.621094 -27.714844 207.246094 -43.726562 215.25 -64.050781 Z M 215.25 -64.050781 "/></g></g></g></svg>